<?xml version="1.0" encoding="UTF-8" standalone="no"?>
<!DOCTYPE svg PUBLIC "-//W3C//DTD SVG 1.1//EN" "http://www.w3.org/Graphics/SVG/1.1/DTD/svg11.dtd">
<svg width="491px" height="372px" version="1.1" xmlns="http://www.w3.org/2000/svg" xmlns:xlink="http://www.w3.org/1999/xlink" xml:space="preserve" xmlns:serif="http://www.serif.com/" style="fill-rule:evenodd;clip-rule:evenodd;stroke-linejoin:round;stroke-miterlimit:2;">
    <g transform="matrix(1,0,0,1,-10.6684,-69.9348)">
        <path d="M498.176,253.099L276.48,439.125C272.384,442.539 266.24,442.027 262.827,437.931L144.213,296.619C140.8,292.523 141.312,286.379 145.408,282.965L367.104,96.939C371.2,93.525 377.344,94.037 380.757,98.133L499.371,239.445C502.784,243.541 502.272,249.685 498.176,253.099ZM129.365,296.107L243.883,432.64C241.664,432.64 239.616,431.957 237.739,430.421L96.427,311.808C92.331,308.395 91.819,302.251 95.232,298.155L281.259,76.459C284.672,72.363 290.816,71.851 294.912,75.264L335.36,109.227L130.56,281.088C126.123,284.672 125.44,291.499 129.365,296.107ZM81.579,313.685L221.696,431.275C218.965,432.64 215.552,432.64 212.651,430.933L52.907,338.773C48.299,336.043 46.763,330.24 49.323,325.461L194.048,74.752C196.779,70.144 202.581,68.608 207.36,71.168L250.197,95.915L80.213,298.496C76.459,303.104 76.971,309.931 81.579,313.685ZM38.741,343.211L197.803,435.029C195.584,436.224 192.853,436.395 190.293,435.371L17.067,372.224C12.117,370.347 9.387,364.885 11.264,359.765L110.251,87.723C112.128,82.773 117.589,80.043 122.709,81.92L167.765,98.304L34.816,328.533C31.744,333.653 33.451,340.139 38.741,343.211Z" style="fill:rgb(252,127,127);"/>
    </g>
</svg>
